<?xml version="1.0" encoding="UTF-8"?>
<svg version="1.1" xmlns="http://www.w3.org/2000/svg" width="1024" height="1024">
<path d="M0 0 C6.39241027 0.57893527 11.46877258 5.24347229 16.4375 8.9375 C17.33984375 9.5459375 18.2421875 10.154375 19.171875 10.78125 C22.94210061 13.42280934 25.07778429 15.03821073 26.8125 19.375 C26.30926132 24.1557675 24.28117698 27.1492106 21.4375 30.9375 C18.2656759 30.31553031 16.09144787 29.23731605 13.42578125 27.42578125 C12.66716797 26.91466797 11.90855469 26.40355469 11.12695312 25.87695312 C10.34255859 25.34005859 9.55816406 24.80316406 8.75 24.25 C7.98494141 23.73244141 7.21988281 23.21488281 6.43164062 22.68164062 C4.88743578 21.6369932 3.34462455 20.59028274 1.80322266 19.54150391 C-1.96970897 16.98338618 -5.7658034 14.46016008 -9.5625 11.9375 C-8.17454771 6.04921755 -6.14384361 1.61680095 0 0 Z " fill="#000000" transform="translate(675.5625,278.0625)"/>
<path d="M0 0 C4.63925131 1.62418663 8.56253311 4.06988264 12.6875 6.6875 C13.74227539 7.35144775 13.74227539 7.35144775 14.81835938 8.02880859 C20.33007961 11.52099614 25.71912944 15.16629108 31 19 C30.39785993 21.87029278 29.54785716 24.01915899 27.98046875 26.4921875 C27.54589355 27.18119141 27.11131836 27.87019531 26.66357422 28.58007812 C26.17646973 29.33740234 25.68936523 30.09472656 25.1875 30.875 C24.66687988 31.69162109 24.14625977 32.50824219 23.60986328 33.34960938 C16.51305427 44.41198517 9.1740165 55.31731926 1.85848999 66.23562622 C-1.0230873 70.53709354 -3.89589808 74.84427062 -6.76171875 79.15625 C-15.52845202 92.34396218 -24.31395656 105.51979945 -33.31787109 118.54736328 C-34.51988277 120.29996261 -35.70308154 122.06552493 -36.87353516 123.83935547 C-37.48890137 124.7573291 -38.10426758 125.67530273 -38.73828125 126.62109375 C-39.29169189 127.45954834 -39.84510254 128.29800293 -40.4152832 129.16186523 C-40.93823975 129.76844971 -41.46119629 130.37503418 -42 131 C-45.47379456 131 -46.16012899 130.41732291 -48.87890625 128.40234375 C-49.63123535 127.8508667 -50.38356445 127.29938965 -51.15869141 126.73120117 C-51.95194824 126.13927979 -52.74520508 125.5473584 -53.5625 124.9375 C-55.18581366 123.74426874 -56.80950925 122.55155688 -58.43359375 121.359375 C-59.21718262 120.78123047 -60.00077148 120.20308594 -60.80810547 119.60742188 C-64.82072671 116.66477337 -68.90633826 113.82853512 -73 111 C-71.68932616 108.26091125 -70.24334401 105.76273077 -68.5234375 103.26171875 C-67.77827881 102.17503906 -67.77827881 102.17503906 -67.01806641 101.06640625 C-66.47585449 100.28136719 -65.93364258 99.49632812 -65.375 98.6875 C-64.5094751 97.42679688 -64.5094751 97.42679688 -63.62646484 96.140625 C-60.57113377 91.69828615 -57.49406016 87.27214295 -54.390625 82.86328125 C-46.11145772 71.08427922 -38.08459015 59.16239007 -30.1875 47.125 C-29.71153381 46.39949951 -29.23556763 45.67399902 -28.74517822 44.92651367 C-23.50541417 36.93318513 -18.29236362 28.92248906 -13.09375 20.90234375 C-12.65157639 20.22104401 -12.20940277 19.53974426 -11.75382996 18.83779907 C-7.73107884 12.62219869 -3.84147535 6.32907831 0 0 Z M2.3125 19.5 C1.31863281 19.7784375 0.32476563 20.056875 -0.69921875 20.34375 C-1.45847656 20.5603125 -2.21773437 20.776875 -3 21 C-2.69128878 22.79232337 -2.37790936 24.58384321 -2.0625 26.375 C-1.88847656 27.37273437 -1.71445312 28.37046875 -1.53515625 29.3984375 C-1.12287938 31.96909656 -1.12287938 31.96909656 0 34 C5.19209404 34.21192221 9.126739 33.5912689 14 32 C13.69024532 30.22868439 13.37709575 28.45796222 13.0625 26.6875 C12.88847656 25.70136719 12.71445312 24.71523438 12.53515625 23.69921875 C12.04253153 20.91810787 12.04253153 20.91810787 11 18 C7.7997785 18 5.38516529 18.63242392 2.3125 19.5 Z M-10.5625 40.5 C-13.7490625 41.2425 -13.7490625 41.2425 -17 42 C-16.01 46.29 -15.02 50.58 -14 55 C-7.565 54.505 -7.565 54.505 -1 54 C0.06396981 49.74412077 -0.22459668 48.32535515 -1.4375 44.25 C-1.72496094 43.26515625 -2.01242187 42.2803125 -2.30859375 41.265625 C-2.53675781 40.51796875 -2.76492188 39.7703125 -3 39 C-5.49229003 39 -8.16088001 39.94039923 -10.5625 40.5 Z M-26.375 62 C-27.57125 62.33 -28.7675 62.66 -30 63 C-29.34 67.29 -28.68 71.58 -28 76 C-22.47322267 76.19392201 -18.24385089 75.7479503 -13 74 C-13.99 69.71 -14.98 65.42 -16 61 C-21.39502012 60.98054306 -21.39502012 60.98054306 -26.375 62 Z M-44 84 C-43.34 88.29 -42.68 92.58 -42 97 C-38.52487282 98.15837573 -36.86329714 97.77265943 -33.3125 97.0625 C-32.31863281 96.86785156 -31.32476563 96.67320312 -30.30078125 96.47265625 C-29.54152344 96.31667969 -28.78226563 96.16070312 -28 96 C-28.14204741 94.41632253 -28.28880153 92.83306682 -28.4375 91.25 C-28.51871094 90.36828125 -28.59992187 89.4865625 -28.68359375 88.578125 C-28.96238465 86.30649548 -29.38790577 84.20148177 -30 82 C-34.90241314 81.68371528 -39.2611952 82.86834512 -44 84 Z " fill="#000000" transform="translate(662,294)"/>
<path d="M0 0 C2.62109375 1.49609375 2.62109375 1.49609375 5.4375 3.4375 C6.49453125 4.16324219 7.5515625 4.88898438 8.640625 5.63671875 C13.19417498 8.82872009 17.72304482 12.05486132 22.23828125 15.30078125 C26.27065047 18.1984134 30.31990875 21.07177305 34.375 23.9375 C35.08277588 24.43813965 35.79055176 24.9387793 36.51977539 25.45458984 C40.12431424 27.99719025 43.74292192 30.51575328 47.390625 32.99609375 C48.1017041 33.48021729 48.8127832 33.96434082 49.54541016 34.46313477 C50.88098159 35.36987457 52.21900136 36.27302438 53.56005859 37.17163086 C65.60233494 45.34306226 65.60233494 45.34306226 66.75 50.125 C66 53 66 53 63.8125 55.4375 C61 57 61 57 58.6484375 56.80078125 C55.57754033 55.87226514 53.45870294 54.56759394 50.8125 52.75 C49.75804687 52.02683594 48.70359375 51.30367188 47.6171875 50.55859375 C42.75227558 47.13850369 37.94529124 43.63738852 33.13696289 40.13842773 C27.57165435 36.09994168 21.93629659 32.17844804 16.25 28.3125 C10.46737565 24.37842434 4.70151518 20.42603682 -1 16.375 C-1.56944336 15.97321533 -2.13888672 15.57143066 -2.72558594 15.1574707 C-8.33085537 11.15185893 -8.33085537 11.15185893 -10 9 C-9.93232476 5.21018637 -9.78500575 2.89714943 -7.25 0 C-4.30664722 -1.30815679 -3.07810651 -0.88645904 0 0 Z " fill="#000000" transform="translate(568,397)"/>
<path d="M0 0 C3.02141463 1.42257203 5.68680945 3.08747401 8.4140625 5.01171875 C9.25839844 5.60533203 10.10273437 6.19894531 10.97265625 6.81054688 C11.84792969 7.42994141 12.72320313 8.04933594 13.625 8.6875 C14.47707031 9.28755859 15.32914063 9.88761719 16.20703125 10.50585938 C17.92678585 11.71697249 19.64586318 12.9290479 21.36425781 14.14208984 C25.56852934 17.10564174 29.78414144 20.05296466 34 23 C32.72199484 26.44955334 31.23881563 29.38090029 29.1796875 32.42578125 C28.64472656 33.22177734 28.10976563 34.01777344 27.55859375 34.83789062 C27.00300781 35.65451172 26.44742188 36.47113281 25.875 37.3125 C25.31167969 38.14845703 24.74835937 38.98441406 24.16796875 39.84570312 C22.78279211 41.89999052 21.39337781 43.95127038 20 46 C16.82942616 41.90227101 14.79219872 37.55669059 12.59765625 32.875 C10.22424565 28.60402152 8.2557781 26.44184785 3.625 24.8125 C-2.47965411 23.50104389 -8.78121934 23.33190121 -15 23 C-12.03653586 17.63048522 -8.75612321 12.59162424 -5.25 7.5625 C-4.74339844 6.83095703 -4.23679687 6.09941406 -3.71484375 5.34570312 C-2.47910287 3.56203941 -1.23991037 1.78076783 0 0 Z " fill="#000000" transform="translate(571,423)"/>
<path d="M0 0 C2.17960518 0.04517904 4.35929991 0.08623761 6.5390625 0.12304688 C11.86133845 0.22187453 17.18025291 0.37214591 22.5 0.5625 C18.32136292 6.97390303 18.32136292 6.97390303 15.80078125 9.60546875 C15.31883301 10.11577637 14.83688477 10.62608398 14.34033203 11.15185547 C13.58405518 11.94293701 13.58405518 11.94293701 12.8125 12.75 C9.09292075 16.70367077 5.51023089 20.68849538 2.125 24.9375 C-2.10850261 30.21783234 -6.69605633 35.09807625 -11.34277344 40.01074219 C-15.52408919 44.45437953 -19.41919494 49.05048771 -23.2265625 53.8203125 C-25.87342323 57.01291771 -28.66568051 60.03689383 -31.5 63.0625 C-35.95504677 67.81934702 -40.13230039 72.71751467 -44.2109375 77.8046875 C-46.77003735 80.8878351 -49.45611705 83.82023046 -52.1875 86.75 C-56.28740299 91.14942959 -60.0122231 95.66075949 -63.5 100.5625 C-55.8117355 109.73271302 -55.8117355 109.73271302 -47.875 118.6875 C-44.88029289 121.97850322 -42.03324295 125.34103698 -39.25 128.8125 C-34.58941135 134.57691228 -29.56220719 139.95101953 -24.49609375 145.35546875 C-20.13009707 150.01441319 -15.96824167 154.83320803 -11.8359375 159.69921875 C-5.76768584 166.832111 0.43183457 173.80199249 6.80859375 180.66015625 C11.33680599 185.54326466 15.71827215 190.44778221 19.6953125 195.79296875 C20.22398926 196.50219482 20.75266602 197.2114209 21.29736328 197.94213867 C21.6942334 198.47685791 22.09110352 199.01157715 22.5 199.5625 C16.18868413 199.92092399 9.88002795 200.16397475 3.56079102 200.33154297 C1.41754168 200.4014543 -0.72505185 200.49663384 -2.8659668 200.61865234 C-21.5940967 201.65837591 -21.5940967 201.65837591 -27.71777344 196.5925293 C-30.5782685 193.74544464 -32.99577087 190.66820966 -35.27105713 187.34037781 C-37.14493723 184.62948707 -39.26207572 182.15276966 -41.375 179.625 C-42.08398438 178.73941406 -42.79296875 177.85382813 -43.5234375 176.94140625 C-45.26260695 174.84821614 -47.04480115 172.95073998 -49 171.0625 C-51.76489079 168.39208156 -54.16368565 165.56654008 -56.5625 162.5625 C-60.95366333 157.10179088 -65.67118414 152.00924023 -70.47558594 146.91137695 C-74.0167292 143.15385191 -77.49352473 139.36221057 -80.86328125 135.44921875 C-82.87873772 133.12591213 -84.93848462 130.84501535 -87 128.5625 C-94.99148517 119.69799544 -102.74279187 110.63168258 -110.5 101.5625 C-109.14891034 98.59924056 -107.61293352 96.35464835 -105.4375 93.9375 C-104.81488281 93.24140625 -104.19226563 92.5453125 -103.55078125 91.828125 C-102.87402344 91.08046875 -102.19726562 90.3328125 -101.5 89.5625 C-100.43845703 88.37914062 -100.43845703 88.37914062 -99.35546875 87.171875 C-96.36219022 83.83785548 -93.36188083 80.51041249 -90.34765625 77.1953125 C-86.04378507 72.4478235 -81.83740159 67.63164753 -77.6875 62.75 C-73.66722499 58.02113385 -69.55253317 53.40768285 -65.3125 48.875 C-60.89836207 44.15423599 -56.75903294 39.28403922 -52.7109375 34.2421875 C-50.3906505 31.42996685 -47.96928866 28.74452737 -45.5 26.0625 C-41.45088933 21.66238283 -37.62806203 17.13402436 -33.8984375 12.4609375 C-33.10695313 11.50445312 -32.31546875 10.54796875 -31.5 9.5625 C-31.09491211 8.79719971 -30.68982422 8.03189941 -30.27246094 7.2434082 C-23.65083887 -3.17590888 -10.84891306 -0.38956124 0 0 Z " fill="#000000" transform="translate(361.5,424.4375)"/>
<path d="M0 0 C6.47427509 -0.21375245 12.9436639 -0.3149621 19.42138672 -0.34179688 C21.61937535 -0.36372195 23.81727322 -0.41044273 26.01416016 -0.48339844 C45.267672 -1.09573184 45.267672 -1.09573184 51.01098633 4.01000977 C53.65599056 6.8661174 55.80257708 9.94616768 57.84729004 13.25079346 C59.67408633 16.02290798 61.8940278 18.29105838 64.1875 20.6875 C67.35830742 24.14015696 70.38035031 27.65530966 73.3125 31.3125 C77.94936557 37.06122498 82.9601463 42.41240163 88.0078125 47.796875 C91.43344921 51.45229288 94.73718148 55.1989161 98 59 C100.05962289 61.39832301 102.12219915 63.79406444 104.1875 66.1875 C104.74663086 66.83549561 105.30576172 67.48349121 105.88183594 68.15112305 C109.59096562 72.4291344 113.38414773 76.61353807 117.25 80.75 C132.45897963 97.08316505 132.45897963 97.08316505 133 102 C131.93945312 103.70410156 131.93945312 103.70410156 130.28125 105.390625 C129.3826123 106.32503418 129.3826123 106.32503418 128.46582031 107.27832031 C127.81709961 107.92897461 127.16837891 108.57962891 126.5 109.25 C125.19191095 110.60339644 123.88460942 111.9575545 122.578125 113.3125 C121.95099609 113.95574219 121.32386719 114.59898437 120.67773438 115.26171875 C118.80272361 117.20439579 117.00841277 119.20136376 115.25 121.25 C112.5527492 124.38317012 109.78686109 127.44613426 107 130.5 C103.54671847 134.28662998 100.13900949 138.1047632 96.77734375 141.97265625 C94.70640513 144.33489173 92.60487152 146.66795853 90.5 149 C87.81016569 151.98062721 85.13689636 154.97245233 82.5 158 C79.86310364 161.02754767 77.18983431 164.01937279 74.5 167 C68.50748552 173.64715892 62.64432614 180.39939161 56.8125 187.1875 C56.04522583 188.07937012 56.04522583 188.07937012 55.26245117 188.98925781 C54.7697876 189.56385742 54.27712402 190.13845703 53.76953125 190.73046875 C53.33229736 191.23989014 52.89506348 191.74931152 52.44458008 192.27416992 C50.85778994 194.06426881 50.85778994 194.06426881 49.49389648 196.66015625 C45.56981383 200.34184085 41.52371082 199.72731312 36.328125 199.70703125 C35.29057068 199.72215256 34.25301636 199.73727386 33.184021 199.75285339 C29.87246107 199.79581634 26.56181116 199.80457701 23.25 199.8125 C21.00388191 199.83563751 18.75778557 199.86100127 16.51171875 199.88867188 C11.00780396 199.95160888 5.50424601 199.986475 0 200 C1.7749952 196.19874995 4.19035761 193.45046244 7.0625 190.4375 C10.65112328 186.60534209 14.09644611 182.73079568 17.375 178.625 C21.42730713 173.58503378 25.77485712 168.89373256 30.20483398 164.18969727 C33.42754525 160.74891133 36.49494206 157.25028677 39.4375 153.5625 C44.24327748 147.55749893 49.51215165 142.02439223 54.78125 136.4296875 C58.28937645 132.70330433 61.67936018 128.89414051 65 125 C66.44943505 123.30532548 67.89956463 121.61125037 69.3503418 119.91772461 C70.40197761 118.68847057 71.45164703 117.45753132 72.49926758 116.22485352 C76.12237978 111.97328329 79.86947476 107.86844306 83.76953125 103.8671875 C85.18726331 102.10443341 85.18726331 102.10443341 84.9453125 100.07421875 C83.68586193 97.31071357 82.01403563 95.26630965 80.0625 92.9375 C79.24910156 91.96683594 78.43570313 90.99617187 77.59765625 89.99609375 C74.28709739 86.17774993 70.8800281 82.45572945 67.45703125 78.73828125 C65.10623867 76.11839954 62.88749541 73.43447781 60.6875 70.6875 C56.61122355 65.63003134 52.24506037 60.91490655 47.79541016 56.18994141 C44.57260294 52.74908482 41.50513088 49.25037818 38.5625 45.5625 C34.91169328 40.99731074 31.01357067 36.74303898 27 32.5 C22.17823655 27.40197637 17.6143971 22.20507258 13.2421875 16.7109375 C10.13557543 12.9548595 6.81784107 9.40686593 3.45239258 5.88208008 C0 2.21194118 0 2.21194118 0 0 Z " fill="#000000" transform="translate(646,425)"/>
<path d="M0 0 C1.40668945 0.08217773 1.40668945 0.08217773 2.84179688 0.16601562 C3.81826172 0.23884766 4.79472656 0.31167969 5.80078125 0.38671875 C7.28288086 0.47856445 7.28288086 0.47856445 8.79492188 0.57226562 C11.23564244 0.72554759 13.67447214 0.89339029 16.11328125 1.07421875 C14.612355 5.34547164 12.39548608 8.91926929 9.86328125 12.63671875 C9.21335205 13.60085693 9.21335205 13.60085693 8.55029297 14.58447266 C3.07439314 22.66921893 -2.54678568 30.65412161 -8.17138672 38.63574219 C-9.76071028 40.895088 -11.34267132 43.15935564 -12.921875 45.42578125 C-20.09152844 55.69027504 -27.55177481 65.71881395 -35.10107422 75.70654297 C-36.7461657 77.8878524 -38.38316977 80.07485015 -40.015625 82.265625 C-50.13245952 95.83983724 -60.49504378 109.2090252 -71.20507812 122.32080078 C-77.67262987 130.24374861 -83.9663708 138.29937267 -90.2265625 146.38671875 C-96.46148033 154.43653607 -102.75081574 162.42838443 -109.19824219 170.30932617 C-112.69202133 174.58477704 -116.12008323 178.90494424 -119.51171875 183.26171875 C-124.78765507 190.02465802 -130.29284835 196.57299614 -135.88671875 203.07421875 C-136.78970703 204.12996094 -136.78970703 204.12996094 -137.7109375 205.20703125 C-142.21353154 210.418266 -146.89385129 215.46765723 -151.5859375 220.5078125 C-153.84389347 222.93577292 -156.07053618 225.38835421 -158.28125 227.859375 C-172.13799218 243.22968174 -188.39799571 254.21423997 -205.88671875 265.07421875 C-179.50818268 254.3324226 -160.3563617 241.15683436 -142.26171875 219.07421875 C-141.66125732 218.34291748 -141.0607959 217.61161621 -140.44213867 216.8581543 C-138.58837746 214.59843516 -136.73711563 212.33669333 -134.88671875 210.07421875 C-134.31550293 209.37635254 -133.74428711 208.67848633 -133.15576172 207.95947266 C-127.06330067 200.50998189 -121.03315969 193.01966716 -115.11816406 185.4284668 C-111.48014016 180.78009896 -107.72326889 176.23742546 -103.94921875 171.69921875 C-98.86965827 165.58123786 -94.00978236 159.34290057 -89.28320312 152.94921875 C-85.94293272 148.44229347 -82.4869666 144.05230241 -78.94921875 139.69921875 C-74.07943144 133.68760489 -69.52180464 127.49447748 -65.03027344 121.19677734 C-60.70214106 115.14842401 -56.22654484 109.22458636 -51.69921875 103.32421875 C-47.33632109 97.63566355 -43.00780511 91.94081022 -38.88671875 86.07421875 C-34.76561679 80.20760509 -30.43663224 74.51316623 -26.07421875 68.82421875 C-18.82927638 59.36676938 -11.79401004 49.78028587 -4.88671875 40.07421875 C-4.37125488 39.35250488 -3.85579102 38.63079102 -3.32470703 37.88720703 C3.68070609 28.07348549 10.48007271 18.14295363 17.11328125 8.07421875 C17.77328125 7.08421875 18.43328125 6.09421875 19.11328125 5.07421875 C20.10328125 5.40421875 21.09328125 5.73421875 22.11328125 6.07421875 C23.2965306 8.51430261 24.29613059 10.85616835 25.23828125 13.38671875 C25.50253906 14.06412109 25.76679687 14.74152344 26.0390625 15.43945312 C26.75840496 17.30718749 27.43742254 19.19031317 28.11328125 21.07421875 C28.54640625 22.14349609 28.54640625 22.14349609 28.98828125 23.234375 C29.19141955 26.22431683 27.68392893 27.78961416 25.98828125 30.19921875 C24.87453125 31.79443359 24.87453125 31.79443359 23.73828125 33.421875 C22.86446674 34.64017407 21.98939375 35.85757117 21.11328125 37.07421875 C20.40365234 38.06977783 20.40365234 38.06977783 19.6796875 39.08544922 C11.87637446 50.03288937 3.88693239 60.84523433 -4.10302734 71.65673828 C-5.91648495 74.1145616 -7.72459626 76.57623444 -9.53125 79.0390625 C-15.32122466 86.92795178 -21.14445478 94.7789026 -27.13671875 102.515625 C-30.70288694 107.12057476 -34.23137825 111.75428154 -37.76171875 116.38671875 C-38.45362305 117.29446045 -39.14552734 118.20220215 -39.85839844 119.13745117 C-43.93562201 124.49300426 -47.98594569 129.86742833 -52.01171875 135.26171875 C-57.92694816 143.17975026 -63.99637144 150.97422284 -70.08251953 158.76123047 C-71.9169119 161.11292644 -73.74457765 163.46970289 -75.5703125 165.828125 C-81.15177199 173.03511457 -86.7460476 180.21968704 -92.5546875 187.24609375 C-94.36014061 189.43562147 -96.15304355 191.63328733 -97.9375 193.83984375 C-103.55411205 200.78488344 -109.20644968 207.68993148 -115.0012207 214.48730469 C-117.86707641 217.85273246 -120.6719533 221.260468 -123.44921875 224.69921875 C-127.3266186 229.46446686 -131.40120267 234.01308797 -135.5625 238.53125 C-137.48777781 240.63773042 -139.35266056 242.77438355 -141.19921875 244.94921875 C-142.42029464 246.33140882 -143.65067533 247.70539723 -144.88671875 249.07421875 C-145.30695313 249.54585449 -145.7271875 250.01749023 -146.16015625 250.50341797 C-163.6518547 269.88562112 -187.23436556 280.36358798 -212.88671875 284.07421875 C-214.97668748 284.15155724 -217.0687827 284.18222833 -219.16015625 284.171875 C-220.31386719 284.16865234 -221.46757812 284.16542969 -222.65625 284.16210938 C-223.84605469 284.15373047 -225.03585937 284.14535156 -226.26171875 284.13671875 C-227.47472656 284.13220703 -228.68773437 284.12769531 -229.9375 284.12304688 C-232.92062382 284.11130229 -235.90364554 284.09487715 -238.88671875 284.07421875 C-237.3606846 280.85791734 -235.78871104 278.78652576 -233.19921875 276.32421875 C-230.46516692 273.66406021 -227.86784659 270.97171977 -225.38671875 268.07421875 C-222.98995287 265.28525482 -220.50712484 262.6543109 -217.88671875 260.07421875 C-214.78425873 257.01304622 -211.90565451 253.84279607 -209.06640625 250.5390625 C-206.07328538 247.15436847 -202.97844476 243.86872716 -199.88671875 240.57421875 C-195.68693224 236.09488412 -191.5197661 231.60566354 -187.515625 226.94921875 C-185.55006786 224.68670694 -183.52998566 222.47731192 -181.51171875 220.26171875 C-178.38249048 216.79891793 -175.38171526 213.26742872 -172.44921875 209.63671875 C-169.37335287 205.83334372 -166.19918709 202.17339223 -162.88671875 198.57421875 C-158.87066028 194.20652383 -155.09286421 189.70572639 -151.3671875 185.08984375 C-148.4370328 181.52751394 -145.41902818 178.04956749 -142.38671875 174.57421875 C-137.87292499 169.39649817 -133.45618752 164.15908569 -129.1328125 158.8203125 C-126.56781302 155.68432184 -123.95006787 152.59673275 -121.32421875 149.51171875 C-117.41011366 144.9075235 -113.58411107 140.24653755 -109.828125 135.51171875 C-107.80617176 132.97308933 -105.75699606 130.45888545 -103.69921875 127.94921875 C-95.37555289 117.79176764 -87.05611618 107.63448916 -78.97436523 97.28271484 C-76.68125639 94.34796577 -74.37290349 91.42822486 -72.02734375 88.53515625 C-65.88165744 80.94950647 -59.99521238 73.21879232 -54.23901367 65.33325195 C-50.21595001 59.83633266 -46.09214915 54.43262769 -41.88671875 49.07421875 C-33.39673749 38.24021025 -25.25202483 27.15919584 -17.22265625 15.98046875 C-16.63105713 15.15740234 -16.03945801 14.33433594 -15.42993164 13.48632812 C-14.30378918 11.91681373 -13.1804276 10.34529903 -12.06030273 8.77148438 C-11.55571533 8.06701172 -11.05112793 7.36253906 -10.53125 6.63671875 C-9.87153198 5.71052734 -9.87153198 5.71052734 -9.19848633 4.765625 C-6.23437406 0.94366897 -5.01885344 -0.33459023 0 0 Z " fill="#000000" transform="translate(557.88671875,449.92578125)"/>
</svg>
